<svg width="54" height="54" viewBox="0 0 54 54" fill="none" xmlns="http://www.w3.org/2000/svg">
<path d="M49.041 16.9784L22.041 43.9784C21.8058 44.2144 21.5264 44.4017 21.2187 44.5294C20.9111 44.6572 20.5812 44.7229 20.248 44.7229C19.9149 44.7229 19.585 44.6572 19.2773 44.5294C18.9697 44.4017 18.6902 44.2144 18.4551 43.9784L6.64257 32.1659C6.40712 31.9305 6.22034 31.651 6.09292 31.3433C5.96549 31.0357 5.8999 30.706 5.8999 30.373C5.8999 30.04 5.96549 29.7103 6.09292 29.4026C6.22034 29.095 6.40712 28.8155 6.64257 28.58C6.87803 28.3446 7.15756 28.1578 7.4652 28.0303C7.77283 27.9029 8.10256 27.8373 8.43554 27.8373C8.76853 27.8373 9.09825 27.9029 9.40589 28.0303C9.71353 28.1578 9.99306 28.3446 10.2285 28.58L20.2502 38.6016L45.4593 13.3967C45.9348 12.9212 46.5798 12.6541 47.2523 12.6541C47.9248 12.6541 48.5697 12.9212 49.0452 13.3967C49.5208 13.8722 49.7879 14.5172 49.7879 15.1897C49.7879 15.8622 49.5208 16.5071 49.0452 16.9827L49.041 16.9784Z" fill="#677599"/>
</svg>
