<svg width="54" height="54" viewBox="0 0 54 54" fill="none" xmlns="http://www.w3.org/2000/svg">
<path d="M43.9785 40.3967C44.454 40.8722 44.7212 41.5172 44.7212 42.1897C44.7212 42.8622 44.454 43.5071 43.9785 43.9826C43.503 44.4582 42.858 44.7253 42.1855 44.7253C41.513 44.7253 40.8681 44.4582 40.3926 43.9826L27.0002 30.586L13.6035 43.9784C13.128 44.4539 12.483 44.7211 11.8105 44.7211C11.138 44.7211 10.4931 44.4539 10.0176 43.9784C9.54205 43.5029 9.2749 42.8579 9.2749 42.1855C9.2749 41.513 9.54205 40.868 10.0176 40.3925L23.4142 27.0001L10.0218 13.6034C9.54627 13.1279 9.27912 12.4829 9.27912 11.8105C9.27912 11.138 9.54627 10.493 10.0218 10.0175C10.4973 9.54196 11.1423 9.27481 11.8148 9.27481C12.4873 9.27481 13.1322 9.54196 13.6077 10.0175L27.0002 23.4141L40.3968 10.0154C40.8723 9.53985 41.5173 9.27271 42.1898 9.27271C42.8623 9.27271 43.5072 9.53985 43.9827 10.0154C44.4583 10.4909 44.7254 11.1359 44.7254 11.8083C44.7254 12.4808 44.4583 13.1258 43.9827 13.6013L30.5861 27.0001L43.9785 40.3967Z" fill="#677599"/>
</svg>
